HIERARCHY
ROOT SimulationBone
{
	OFFSET 0.000000 0.000000 0.000000
	CHANNELS 6 Xposition Yposition Zposition Zrotation Yrotation Xrotation 
	JOINT Hips
	{
		OFFSET 0.000000 0.000000 0.000000
		CHANNELS 6 Xposition Yposition Zposition Zrotation Yrotation Xrotation 
		JOINT RightUpLeg
		{
			OFFSET 0.103457 1.857824 10.548509
			CHANNELS 3 Zrotation Yrotation Xrotation
			JOINT RightLeg
			{
				OFFSET 43.500000 -0.000023 0.000006
				CHANNELS 3 Zrotation Yrotation Xrotation
				JOINT RightFoot
				{
					OFFSET 42.372192 0.000011 -0.000009
					CHANNELS 3 Zrotation Yrotation Xrotation
					JOINT RightToe
					{
						OFFSET 17.300005 0.000002 -0.000010
						CHANNELS 3 Zrotation Yrotation Xrotation
						End Site
						{
							OFFSET 0.000000 0.000000 0.000000
						}
					}
				}
			}
		}
		JOINT LeftUpLeg
		{
			OFFSET 0.103458 1.857836 -10.548506
			CHANNELS 3 Zrotation Yrotation Xrotation
			JOINT LeftLeg
			{
				OFFSET 43.500038 -0.000023 0.000017
				CHANNELS 3 Zrotation Yrotation Xrotation
				JOINT LeftFoot
				{
					OFFSET 42.372269 -0.000019 0.000007
					CHANNELS 3 Zrotation Yrotation Xrotation
					JOINT LeftToe
					{
						OFFSET 17.299999 -0.000003 0.000008
						CHANNELS 3 Zrotation Yrotation Xrotation
						End Site
						{
							OFFSET 0.000000 0.000000 0.000000
						}
					}
				}
			}
		}
		JOINT Spine
		{
			OFFSET 6.901969 -2.603729 0.000003
			CHANNELS 3 Zrotation Yrotation Xrotation
			JOINT Spine1
			{
				OFFSET 12.588093 -0.000007 0.000001
				CHANNELS 3 Zrotation Yrotation Xrotation
				JOINT Spine2
				{
					OFFSET 12.343206 0.000014 -0.000007
					CHANNELS 3 Zrotation Yrotation Xrotation
					JOINT Neck
					{
						OFFSET 25.832899 -0.000010 0.000002
						CHANNELS 3 Zrotation Yrotation Xrotation
						JOINT Head
						{
							OFFSET 11.766599 0.000010 -0.000001
							CHANNELS 3 Zrotation Yrotation Xrotation
							End Site
							{
								OFFSET 0.000000 0.000000 0.000000
							}
						}
					}
					JOINT RightShoulder
					{
						OFFSET 19.745895 -1.480371 6.000111
						CHANNELS 3 Zrotation Yrotation Xrotation
						JOINT RightArm
						{
							OFFSET 11.284124 -0.000010 -0.000007
							CHANNELS 3 Zrotation Yrotation Xrotation
							JOINT RightForeArm
							{
								OFFSET 33.000061 0.000006 0.000028
								CHANNELS 3 Zrotation Yrotation Xrotation
								JOINT RightHand
								{
									OFFSET 25.200001 0.000019 0.000008
									CHANNELS 3 Zrotation Yrotation Xrotation
									End Site
									{
										OFFSET 0.000000 0.000000 0.000000
									}
								}
							}
						}
					}
					JOINT LeftShoulder
					{
						OFFSET 19.746101 -1.480375 -6.000078
						CHANNELS 3 Zrotation Yrotation Xrotation
						JOINT LeftArm
						{
							OFFSET 11.284128 -0.000010 -0.000011
							CHANNELS 3 Zrotation Yrotation Xrotation
							JOINT LeftForeArm
							{
								OFFSET 33.000095 0.000022 0.000002
								CHANNELS 3 Zrotation Yrotation Xrotation
								JOINT LeftHand
								{
									OFFSET 25.199768 0.000129 0.000422
									CHANNELS 3 Zrotation Yrotation Xrotation
									End Site
									{
										OFFSET 0.000000 0.000000 0.000000
									}
								}
							}
						}
					}
				}
			}
		}
	}
}
MOTION
Frames: 15
Frame Time: 0.033333
-251.568648 0.000000 -210.552920 0.000000 -2.413194 0.000000 -4.953248 88.170273 0.983148 82.522911 2.370367 -173.421587 141.189777 2.617707 -176.899891 -20.677378 1.987718 -7.712014 75.279456 3.943520 -5.559955 21.454560 0.003112 0.000015 178.111895 0.806305 -174.048465 -23.553740 -0.157070 -1.531253 96.704441 0.976709 -0.345109 21.454551 -0.003092 0.000000 6.789243 -0.090251 1.968218 3.561570 -0.240138 3.932769 3.244274 -0.216540 3.934143 -10.639626 -19.914538 1.905612 -34.015800 13.861106 -12.256160 -171.689891 -75.564206 -9.910703 30.034695 58.306149 33.763630 -72.337864 -7.447083 2.101245 -6.312025 -5.730892 19.804776 167.101124 84.987573 -11.388092 -19.901146 -63.834579 10.625982 -92.775764 2.282677 -2.588058 2.521947 -2.512370 -36.818640 
-248.683229 0.000000 -211.413718 0.000000 -1.043564 0.000000 -5.259883 87.744087 1.337541 82.523864 2.290317 -176.196688 142.354010 1.620804 -175.147880 -14.329844 2.197274 -9.558179 73.941401 5.366631 -4.996435 21.454560 0.003109 0.000017 -179.983271 0.857498 -174.844892 -22.954970 -0.028357 -1.552761 96.884403 1.002985 -0.233842 21.454551 -0.003092 0.000000 6.826698 -0.120390 2.050845 3.635197 -0.304223 4.096957 3.317946 -0.279635 4.098713 -10.274043 -19.788813 2.023835 -33.804963 14.058132 -12.094450 -170.517599 -75.011521 -11.108607 31.454254 57.780593 34.453851 -71.216292 -7.753483 2.076178 -7.345922 -6.544435 20.483082 165.763596 84.969855 -12.736092 -27.018369 -63.799909 17.023557 -90.669668 2.908472 -2.538296 2.840241 -2.030878 -35.700217 
-245.859657 0.000000 -212.213923 0.000000 0.252718 0.000000 -5.335521 87.145309 1.524999 82.802268 2.423543 -178.686138 143.169945 0.465500 -174.029942 -12.723871 2.405726 -10.692829 73.271421 6.284715 -4.545719 21.454562 0.003111 0.000017 -178.003923 0.917801 -175.335204 -23.062176 0.172139 -1.573064 97.039400 1.025911 -0.134130 21.454550 -0.003092 -0.000001 6.883596 -0.105899 2.122118 3.749209 -0.279568 4.239741 3.432052 -0.254118 4.241344 -9.631924 -19.601140 2.054831 -33.737217 14.213341 -11.953952 -169.497305 -74.446303 -12.152799 32.938406 57.399373 35.079227 -70.721022 -7.896860 2.065775 -8.364916 -6.718476 21.256425 164.434113 85.019681 -14.073088 -32.613054 -63.237935 19.560963 -87.836936 5.812779 -2.615929 3.348429 -1.111660 -35.460491 
-243.091176 0.000000 -212.956751 0.000000 1.474422 0.000000 -5.275111 86.699806 1.501814 83.371828 1.972484 179.125286 143.672510 0.139801 -176.472458 -15.651546 2.599298 -11.762510 70.870289 6.868467 -4.938272 21.454558 0.003106 0.000017 -176.063371 1.923997 -175.087637 -23.908794 0.451623 -1.849490 96.628571 1.214051 -0.104411 21.454543 -0.003092 0.000000 6.988685 -0.232099 2.173176 3.954434 -0.537411 4.337282 3.637306 -0.511370 4.340436 -8.801351 -19.554374 2.017437 -33.772331 14.505070 -11.989583 -168.485194 -74.019525 -13.190722 34.256752 57.299413 35.533755 -70.916693 -7.821496 2.071425 -9.077046 -6.456434 21.942965 162.601382 85.157098 -15.912461 -36.042956 -62.727788 19.281530 -84.665290 9.489009 -2.733680 4.293815 0.082739 -36.607386 
-240.371027 0.000000 -213.645414 0.000000 2.620891 0.000000 -5.137607 86.863113 1.236884 83.952879 0.548024 177.609809 144.720275 1.299606 178.120474 -17.040518 3.652139 -11.408830 64.758567 6.629664 -4.357162 21.454558 0.003109 0.000017 -174.371150 4.125793 -174.017442 -24.866521 0.504808 -2.653788 94.300959 1.784793 0.062083 21.454560 -0.003092 0.000000 7.107403 -0.562777 2.107606 4.180239 -1.200467 4.193934 3.862992 -1.175277 4.201088 -8.519828 -19.731757 2.023162 -33.733905 14.774485 -12.127791 -166.678199 -73.531392 -15.046394 34.322032 57.556570 35.413062 -71.257192 -7.739825 2.076913 -9.512894 -6.254152 22.454337 162.027359 85.083626 -16.493812 -36.812432 -62.411537 16.432283 -81.574814 12.924507 -2.840032 5.440837 1.464087 -38.915696 
-237.692454 0.000000 -214.283129 0.000000 3.691978 0.000000 -4.845037 87.235901 0.837690 84.288757 -0.959186 176.877260 145.562847 2.934800 173.716354 -19.280389 3.908971 -9.178762 66.643713 6.420306 -0.573666 21.454558 0.003109 0.000017 -173.871317 6.453996 -173.151579 -27.436134 0.483104 -3.452129 90.195667 2.307240 -0.166952 21.454558 -0.003092 0.000000 7.209570 -0.959873 2.002684 4.372427 -1.993941 3.968597 4.054952 -1.970094 3.980538 -9.076609 -20.138394 1.912246 -33.698391 14.974812 -12.580291 -166.465603 -72.905057 -15.266704 32.495335 57.833261 34.074745 -70.850645 -7.821279 2.065866 -9.980505 -6.458524 22.566171 163.047639 84.791464 -15.479604 -34.950884 -62.551064 10.937176 -77.924358 16.357519 -2.924272 5.677905 3.518622 -40.242416 
-235.048700 0.000000 -214.873107 0.000000 4.687982 0.000000 -4.501586 87.684601 0.588769 84.295755 -1.529223 177.209790 146.330902 4.246903 175.133195 -21.683680 3.203278 -9.607079 69.687566 6.678751 -0.655150 21.454560 0.003105 0.000017 -174.779049 7.606201 -171.429265 -31.769201 0.284535 -4.077535 83.500606 2.407894 -1.745946 21.454555 -0.003092 0.000000 7.247156 -1.167296 1.883815 4.443354 -2.405325 3.722629 4.125678 -2.382954 3.737062 -9.613151 -20.609852 1.496715 -33.712215 14.859442 -13.202508 -168.770477 -72.989464 -12.896929 30.145808 58.584964 32.901475 -69.896140 -8.284121 2.058833 -9.835925 -7.038121 22.973556 166.096813 84.940649 -12.401609 -31.741819 -63.353884 2.986511 -72.218623 20.223024 -2.954474 4.915788 6.066426 -36.528852 
-232.433006 0.000000 -215.418565 0.000000 5.609580 0.000000 -4.166680 88.304459 0.486306 84.341848 -1.308705 177.900080 147.884688 4.861404 175.370694 -22.616052 3.105509 -8.844986 72.120220 6.132093 -0.588000 21.454562 0.003102 0.000017 -176.661777 8.259202 -169.525377 -37.387284 0.396246 -4.678713 74.768728 2.578462 -2.278532 21.454548 -0.003092 -0.000001 7.244077 -1.132786 1.771362 4.440610 -2.332013 3.499056 4.122879 -2.310987 3.513051 -9.324559 -21.024466 1.007084 -33.420481 14.300081 -13.419922 -172.816395 -73.642731 -8.742813 28.670498 59.794420 32.473639 -69.323879 -8.920076 2.079403 -10.066668 -7.487827 26.474279 165.949678 85.310238 -12.534866 -28.301688 -63.894241 -6.325941 -64.037538 23.609920 -2.855231 5.583766 7.958374 -26.654246 
-229.838616 0.000000 -215.922716 0.000000 6.457768 0.000000 -3.947853 88.949867 0.335425 84.326171 -1.011360 177.917196 149.735956 5.014602 175.143057 -22.734189 2.974674 -8.162716 74.059270 5.774602 -0.090753 21.454562 0.003106 0.000017 179.847255 9.129808 -168.122784 -45.563526 -0.227376 -4.991336 68.741223 3.376773 -0.524747 21.454555 -0.003091 0.000000 7.186462 -1.051688 1.685075 4.329355 -2.165000 3.330585 4.011611 -2.144994 3.343581 -8.344562 -21.072792 0.814326 -32.667917 13.252881 -12.736419 -175.796502 -74.079576 -5.688505 26.837442 60.624698 31.797338 -69.710290 -9.095038 2.107132 -9.828968 -6.910859 27.416502 162.547246 85.646481 -15.944885 -27.008899 -63.331932 -14.722334 -54.173451 25.054703 -2.575408 8.097108 7.512321 -13.158078 
-227.258771 0.000000 -216.388774 0.000000 7.233808 0.000000 -3.804780 89.399063 0.122048 84.487941 -1.007126 177.360992 151.436769 5.320603 174.102656 -23.276223 3.333431 -7.578374 75.919076 5.470137 0.436012 21.454558 0.003106 0.000017 175.487340 10.174501 -168.137797 -54.463351 -0.987361 -3.875541 65.742531 3.495935 1.729541 21.454541 -0.003092 0.000000 7.162762 -1.039080 1.571486 4.284498 -2.134987 3.104332 3.966670 -2.116346 3.117152 -7.066314 -20.984337 0.946314 -31.868761 12.316078 -11.690464 -175.729484 -74.188224 -5.758626 22.735852 60.672680 30.151208 -70.641170 -8.683546 2.116756 -8.531526 -7.043077 23.801529 155.617678 85.664554 -22.914520 -27.561159 -62.061804 -21.098738 -44.737944 23.872782 -2.176733 10.891514 4.914846 -1.300170 
-224.686716 0.000000 -216.819954 0.000000 7.939172 0.000000 -3.714987 89.601593 -0.177364 85.347697 -1.722237 176.901700 153.694665 6.261597 172.841461 -23.863590 3.550484 -7.025194 77.760645 5.113757 0.723054 21.454558 0.003105 0.000017 171.840579 11.842605 -168.572948 -62.152570 -1.403570 -1.603034 66.674121 2.894976 4.461684 21.454555 -0.003092 0.000000 7.333000 -1.179691 1.373694 4.625765 -2.412809 2.700116 4.307738 -2.396601 2.714628 -6.149546 -21.100594 1.252372 -30.441740 11.817746 -10.748310 -174.102587 -73.961721 -7.425294 15.507555 59.531478 27.030895 -71.384745 -8.110781 2.107758 -7.659812 -7.848191 18.734026 152.668689 85.323618 -25.899770 -29.030541 -60.677379 -25.246787 -36.867616 20.808713 -1.755577 12.239504 1.770981 5.597924 
-222.115692 0.000000 -217.219470 0.000000 8.575501 0.000000 -3.596744 89.792793 -0.391524 86.289209 -2.010195 177.078703 156.192015 6.900696 172.810370 -24.327758 3.350694 -6.672011 79.673439 4.880916 0.925782 21.454560 0.003108 0.000017 168.393273 12.802706 -168.153001 -68.105592 -2.129098 0.558598 69.028760 1.736398 5.819467 21.454560 -0.003093 0.000001 7.524726 -1.207976 1.119532 5.014267 -2.462904 2.186528 4.696091 -2.449797 2.201358 -5.056754 -21.043811 1.465635 -28.692306 11.150920 -9.710617 -173.323318 -73.420968 -8.220385 6.651945 57.147298 23.325767 -71.605634 -7.847608 2.098683 -7.072210 -8.501635 15.262290 153.568853 84.780345 -25.025398 -29.529428 -59.967469 -27.534618 -31.195164 16.985675 -1.380723 13.554660 0.006536 7.276618 
-219.538942 0.000000 -217.590535 0.000000 9.144562 0.000000 -3.509780 90.025642 -0.460509 86.785739 -1.903481 177.944346 158.377798 7.132598 173.693295 -24.616555 2.937807 -6.298992 81.417446 4.606337 0.996657 21.454558 0.003109 0.000017 164.608802 12.940094 -167.419343 -71.834568 -3.009935 2.347322 69.278657 0.486088 5.888275 21.454565 -0.003089 0.000001 7.597042 -1.131288 0.866578 5.165373 -2.299801 1.682459 4.847160 -2.289736 1.696315 -3.718518 -20.433052 1.454701 -26.418195 10.040031 -8.472589 -175.197685 -72.873433 -6.288700 -1.701641 53.942577 20.349451 -71.113669 -8.128689 2.097854 -6.882736 -8.591894 14.534118 158.566325 84.490779 -20.008448 -27.993474 -60.587357 -29.414005 -27.533295 14.085022 -1.125637 14.843036 -0.139915 5.632714 
-216.949709 0.000000 -217.936364 0.000000 9.648219 0.000000 -3.555231 90.208794 -0.476422 86.874534 -1.895579 178.858399 160.199819 7.255798 173.767020 -24.648640 2.795479 -5.427377 83.032636 3.963551 0.970889 21.454557 0.003108 0.000018 160.319798 12.645907 -167.373062 -73.601265 -3.767489 4.028103 69.964886 -0.550808 6.435714 21.454551 -0.003091 0.000000 7.549675 -1.087254 0.657007 5.075252 -2.202009 1.266257 4.756980 -2.194458 1.279530 -2.231505 -19.463421 1.494936 -23.414334 9.166320 -7.174405 -178.793903 -72.826967 -2.591492 -8.407331 50.939138 18.044996 -70.028283 -8.649664 2.089398 -6.978331 -7.313195 16.896821 165.869532 84.402697 -12.652274 -24.277774 -62.010468 -32.725533 -25.933497 12.683342 -1.008790 15.923705 0.267834 3.335476 
-214.341234 0.000000 -218.260172 0.000000 10.088401 0.000000 -3.676022 90.356827 -0.498868 86.892092 -1.896447 179.586964 161.999151 7.354797 174.011473 -24.512007 2.778277 -4.742173 84.516310 3.423991 0.797375 21.454553 0.003108 0.000018 156.146539 12.003909 -168.133644 -73.249148 -4.042249 5.881935 71.399342 -1.680570 7.281484 21.454560 -0.003090 0.000000 7.489410 -1.031282 0.414748 4.959657 -2.079196 0.785366 4.641380 -2.074551 0.797909 -1.223661 -18.414361 1.901838 -19.723611 8.569123 -5.708480 178.291706 -73.173845 0.395601 -13.927836 48.976452 15.371421 -68.665463 -9.148793 2.068530 -6.918402 -5.313455 20.428312 172.869943 84.507342 -5.590210 -19.062863 -63.351316 -38.238469 -26.060288 12.552324 -1.002423 16.016782 0.343711 2.094232 
